<?xml version="1.0" standalone="no"?>
<!DOCTYPE svg PUBLIC "-//W3C//DTD SVG 20010904//EN"
 "http://www.w3.org/TR/2001/REC-SVG-20010904/DTD/svg10.dtd">
<svg version="1.0" xmlns="http://www.w3.org/2000/svg"
 width="568.000000pt" height="568.000000pt" viewBox="0 0 568.000000 568.000000"
 preserveAspectRatio="xMidYMid meet">
<metadata>
Created by potrace 1.15, written by Peter Selinger 2001-2017
</metadata>
<g transform="translate(0.000000,568.000000) scale(0.100000,-0.100000)"
fill="#000000" stroke="none">
<path d="M3330 4955 c0 -212 -2 -255 -14 -255 -8 0 -138 81 -291 180 -239 156
-279 179 -296 169 -18 -9 -305 -195 -669 -434 -69 -45 -235 -153 -370 -240
-135 -87 -328 -212 -430 -279 -102 -67 -330 -216 -507 -331 l-323 -209 0 -63
0 -63 353 2 352 3 3 65 3 65 322 210 c177 115 392 255 477 311 85 55 234 152
330 214 96 62 240 155 319 207 79 52 151 93 161 91 10 -2 329 -205 709 -453
380 -247 737 -480 793 -516 l103 -67 3 -66 3 -66 349 0 350 0 0 64 0 63 -177
115 c-98 63 -253 163 -346 224 -259 169 -553 361 -697 453 l-130 84 0 389 0
388 -190 0 -190 0 0 -255z"/>
<path d="M1927 3914 c-4 -4 -7 -118 -7 -254 0 -274 8 -330 60 -405 61 -89 157
-133 269 -122 105 9 202 83 242 185 22 53 23 74 27 330 l4 272 -66 0 -66 0 0
-265 c0 -303 -5 -326 -73 -376 -74 -54 -193 -34 -239 40 -22 35 -23 47 -28
316 l-5 280 -55 3 c-31 2 -59 0 -63 -4z"/>
<path d="M2662 3534 l3 -389 160 -3 c184 -3 227 5 288 55 55 45 76 93 77 168
0 76 -22 115 -84 145 -25 12 -46 25 -46 30 0 4 18 19 40 34 50 33 71 73 71
139 1 89 -33 141 -120 180 -39 18 -71 22 -219 25 l-172 4 2 -388z m339 261
c33 -18 49 -50 49 -100 0 -87 -34 -111 -167 -117 l-93 -4 0 118 0 118 90 0
c63 0 100 -5 121 -15z m-78 -315 c85 0 90 -1 119 -30 29 -29 30 -34 26 -92 -4
-48 -9 -65 -27 -79 -33 -27 -86 -39 -173 -39 l-78 0 0 126 c0 126 0 126 23
120 12 -3 62 -6 110 -6z"/>
<path d="M3320 3530 l0 -390 210 0 210 0 0 55 0 55 -145 0 -145 0 -2 333 -3
332 -62 3 -63 3 0 -391z"/>
<path d="M792 2158 c3 -1360 -3 -1259 89 -1349 87 -85 -27 -79 1469 -79 729 0
1341 0 1360 0 l35 0 -30 19 c-72 43 -112 121 -100 197 l6 44 -1250 0 -1251 0
0 1180 0 1180 -165 0 -165 0 2 -1192z"/>
<path d="M4370 2400 c0 -522 1 -950 3 -950 1 0 20 7 42 15 22 8 69 14 105 14
36 0 83 -6 105 -14 22 -8 43 -15 48 -15 4 0 7 428 7 950 l0 950 -155 0 -155 0
0 -950z"/>
<path d="M2664 2936 c-100 -44 -141 -158 -98 -271 8 -22 17 -47 20 -55 3 -9
-12 -26 -37 -44 -50 -35 -99 -130 -99 -191 0 -55 40 -135 85 -173 77 -62 175
-65 291 -6 37 19 75 34 83 34 9 0 31 -16 50 -35 32 -33 37 -35 100 -35 36 0
61 4 56 8 -6 4 -39 40 -75 80 -63 72 -64 74 -51 105 28 69 49 144 52 187 4 44
3 45 -27 48 -37 4 -64 -19 -64 -52 0 -12 -7 -46 -15 -74 -17 -55 -35 -65 -58
-32 -7 11 -33 41 -58 68 -143 157 -169 196 -169 260 0 101 127 140 171 53 19
-36 28 -41 64 -34 43 8 49 17 36 55 -30 92 -162 145 -257 104z m14 -435 c15
-15 50 -54 77 -86 28 -32 59 -67 69 -78 23 -24 14 -43 -34 -69 -22 -11 -55
-18 -92 -18 -49 0 -62 4 -89 28 -37 33 -53 97 -38 154 10 38 53 98 70 98 5 0
22 -13 37 -29z"/>
<path d="M1642 2553 l3 -388 58 -3 57 -3 0 156 0 155 46 0 c58 0 67 -8 122
-112 13 -23 47 -77 75 -118 l52 -75 63 -3 c34 -2 62 0 62 4 0 5 -122 199 -195
311 -7 11 -5 18 9 27 144 86 178 256 72 362 -59 60 -115 74 -288 74 l-138 0 2
-387z m308 262 c40 -21 50 -43 50 -113 0 -100 -52 -142 -175 -142 l-65 0 0
135 0 135 80 0 c53 0 91 -5 110 -15z"/>
<path d="M3410 2550 l0 -392 178 4 c192 5 227 13 306 67 138 95 188 333 106
509 -38 84 -86 132 -169 171 -53 25 -66 26 -238 29 l-183 4 0 -392z m375 261
c86 -40 128 -122 129 -251 0 -102 -21 -173 -66 -219 -56 -57 -82 -65 -203 -66
l-110 0 -3 265 c-1 146 0 270 3 277 8 22 201 17 250 -6z"/>
<path d="M4069 2006 c-52 -26 -53 -47 -15 -278 19 -117 38 -242 41 -278 7 -70
22 -166 54 -353 23 -128 27 -266 11 -298 -15 -27 -52 -24 -82 9 -15 15 -45 61
-69 102 -23 41 -56 93 -74 115 -57 71 -200 125 -225 86 -11 -19 8 -69 31 -82
10 -5 19 -17 19 -26 0 -9 6 -21 14 -27 16 -12 47 -93 76 -196 15 -50 27 -73
57 -99 70 -63 107 -99 197 -190 86 -87 151 -130 221 -147 50 -11 105 -46 126
-81 11 -18 28 -33 37 -33 48 0 545 69 552 76 8 8 29 113 51 249 17 112 2 377
-32 534 -18 86 -80 143 -170 157 -34 5 -54 17 -85 49 -55 57 -121 67 -182 27
-22 -14 -25 -13 -63 27 -34 35 -46 41 -81 41 -25 0 -59 -10 -89 -27 -34 -18
-53 -23 -60 -16 -9 9 -67 231 -135 518 -29 121 -71 168 -125 141z"/>
<path d="M1897 1928 c-20 -6 -58 -29 -82 -52 -79 -72 -102 -182 -65 -310 15
-50 84 -118 136 -134 78 -23 175 -8 232 36 23 18 23 19 5 41 l-19 23 -36 -21
c-32 -20 -69 -25 -137 -22 -33 1 -97 69 -110 116 -24 85 -8 167 44 223 31 34
37 36 102 40 52 3 78 0 103 -13 31 -16 33 -16 53 4 l20 20 -24 20 c-46 38
-142 50 -222 29z"/>
<path d="M3037 1893 c-3 -5 -8 -24 -12 -43 -12 -63 -16 -69 -46 -75 -37 -8
-36 -36 1 -45 25 -6 25 -8 30 -130 5 -135 15 -166 56 -176 29 -7 93 1 106 14
18 18 -3 41 -38 40 -19 -1 -39 3 -45 9 -6 6 -9 57 -7 124 l3 114 48 3 c42 3
47 5 47 28 0 22 -4 24 -50 24 l-50 0 0 60 c0 53 -2 60 -19 60 -11 0 -22 -3
-24 -7z"/>
<path d="M2312 1780 c-44 -10 -96 -68 -112 -125 -24 -84 22 -189 97 -220 63
-27 157 -13 191 27 20 24 -10 45 -44 29 -14 -6 -47 -11 -75 -11 -61 0 -99 31
-99 80 l0 30 114 0 c131 0 136 4 116 82 -15 53 -34 76 -85 99 -43 20 -53 21
-103 9z"/>
<path d="M2735 1778 c-16 -6 -34 -17 -38 -24 -12 -20 -35 -17 -42 6 -4 14 -15
20 -36 20 l-29 0 0 -180 0 -180 24 0 c55 0 56 2 56 145 0 130 0 133 25 149 32
21 89 21 106 0 10 -12 16 -59 19 -153 l5 -136 30 0 30 0 0 145 c0 129 -2 148
-20 172 -19 25 -63 49 -89 47 -6 0 -24 -5 -41 -11z"/>
<path d="M3333 1765 c-37 -19 -56 -36 -69 -63 -58 -123 2 -266 119 -279 51 -6
116 10 145 36 20 16 20 20 7 31 -12 10 -21 10 -41 1 -14 -6 -49 -11 -78 -11
-60 0 -89 22 -101 77 l-6 32 118 3 c116 3 118 3 121 27 13 86 -62 171 -148
171 -9 0 -39 -11 -67 -25z"/>
<path d="M3773 1780 c-12 -5 -29 -21 -39 -35 -20 -30 -36 -28 -44 6 -4 17 -14
25 -33 27 l-27 3 2 -178 3 -178 30 0 30 0 3 115 c3 109 4 116 29 142 20 21 36
28 65 28 32 0 39 4 44 25 12 49 -11 66 -63 45z"/>
</g>
</svg>
